<?xml version="1.0" encoding="UTF-8" standalone="no"?>
<!-- Created with Inkscape (http://www.inkscape.org/) -->

<svg
   width="24"
   height="24"
   id="svg10643"
   sodipodi:version="0.32"
   inkscape:version="1.4.4 (dcaf3e7d9e, 2026-05-05)"
   sodipodi:docname="help.svg"
   inkscape:output_extension="org.inkscape.output.svg.inkscape"
   inkscape:export-filename="/home/me/svn/oxygen-playground/ruphy/arrow-shadow.png"
   inkscape:export-xdpi="67.5"
   inkscape:export-ydpi="67.5"
   version="1.0"
   sodipodi:modified="true"
   xmlns:inkscape="http://www.inkscape.org/namespaces/inkscape"
   xmlns:sodipodi="http://sodipodi.sourceforge.net/DTD/sodipodi-0.dtd"
   xmlns:xlink="http://www.w3.org/1999/xlink"
   xmlns="http://www.w3.org/2000/svg"
   xmlns:svg="http://www.w3.org/2000/svg"
   xmlns:rdf="http://www.w3.org/1999/02/22-rdf-syntax-ns#"
   xmlns:cc="http://creativecommons.org/ns#"
   xmlns:dc="http://purl.org/dc/elements/1.1/">
  <defs
     id="defs10645">
    <inkscape:path-effect
       effect="fillet_chamfer"
       id="path-effect6"
       is_visible="true"
       lpeversion="1"
       nodesatellites_param="F,0,0,1,0,0,0,1 @ F,0,0,1,0,1.9943999,0,1 @ F,0,0,1,0,1.9943999,0,1 @ F,0,0,1,0,1.3238265,0,1 @ F,0,1,1,0,1.3238265,0,1 @ F,0,1,1,0,0,0,1"
       radius="0"
       unit="px"
       method="auto"
       mode="F"
       chamfer_steps="1"
       flexible="false"
       use_knot_distance="true"
       apply_no_radius="true"
       apply_with_radius="true"
       only_selected="false"
       hide_knots="false" />
    <linearGradient
       id="linearGradient3233">
      <stop
         style="stop-color:#ffffff;stop-opacity:1;"
         offset="0"
         id="stop3235" />
      <stop
         style="stop-color:#ffffff;stop-opacity:0;"
         offset="1"
         id="stop3237" />
    </linearGradient>
    <linearGradient
       id="linearGradient10711">
      <stop
         style="stop-color:#fff6c8;stop-opacity:1;"
         offset="0"
         id="stop10713" />
      <stop
         style="stop-color:#fff6c8;stop-opacity:0;"
         offset="1"
         id="stop10715" />
    </linearGradient>
    <filter
       inkscape:collect="always"
       x="-0.15683858"
       width="1.2919842"
       y="-0.31720071"
       height="1.6313102"
       id="filter3484">
      <feGaussianBlur
         inkscape:collect="always"
         stdDeviation="0.97202214"
         id="feGaussianBlur3486" />
    </filter>
    <clipPath
       clipPathUnits="userSpaceOnUse"
       id="clipPath3496">
      <rect
         style="opacity:0.626335;fill:none;fill-opacity:1;fill-rule:nonzero;stroke:#000000;stroke-width:0.196021;stroke-linecap:round;stroke-linejoin:miter;stroke-miterlimit:4;stroke-dasharray:none;stroke-opacity:1"
         id="rect3498"
         width="23.015772"
         height="23.581865"
         x="5.309958"
         y="1.2316679"
         ry="1.171887" />
    </clipPath>
    <linearGradient
       id="linearGradient3170"
       gradientUnits="userSpaceOnUse"
       x1="27.6001"
       y1="69.600098"
       x2="111.6001"
       y2="69.600098"
       gradientTransform="matrix(1.0859375,0,0,1.0859375,-3.9093733,-8.2531233)">
      <stop
         offset="0"
         style="stop-color:#2A94EC"
         id="stop3172" />
      <stop
         offset="1"
         style="stop-color:#0057AE"
         id="stop3174" />
    </linearGradient>
    <radialGradient
       id="radialGradient3176"
       cx="69.600098"
       cy="69.600098"
       r="58"
       gradientUnits="userSpaceOnUse">
      <stop
         offset="0.6154"
         style="stop-color:#EEEEEE"
         id="stop3178" />
      <stop
         offset="0.8225"
         style="stop-color:#DDDDDD"
         id="stop3180" />
      <stop
         offset="1"
         style="stop-color:#ffffff;stop-opacity:1;"
         id="stop3182" />
    </radialGradient>
    <clipPath
       id="XMLID_6_">
      <path
         d="m 27.6,69.6 c 0,23.159 18.841,42 42,42 23.159,0 42,-18.841 42,-42 0,-23.159 -18.841,-42 -42,-42 -23.159,0 -42,18.841 -42,42 z"
         id="use3143"
         style="fill:url(#linearGradient5)" />
    </clipPath>
    <radialGradient
       inkscape:collect="always"
       xlink:href="#linearGradient10711"
       id="radialGradient3002"
       gradientUnits="userSpaceOnUse"
       gradientTransform="matrix(1,0,0,0.381677,0,59.102068)"
       cx="70.600594"
       cy="95.584465"
       fx="70.600594"
       fy="95.584465"
       r="24.890081" />
    <radialGradient
       inkscape:collect="always"
       xlink:href="#linearGradient10711"
       id="radialGradient3004"
       gradientUnits="userSpaceOnUse"
       gradientTransform="matrix(1,0,0,0.381677,0,59.102068)"
       cx="70.600594"
       cy="95.584465"
       fx="70.600594"
       fy="95.584465"
       r="24.890081" />
    <linearGradient
       inkscape:collect="always"
       xlink:href="#linearGradient3233"
       id="linearGradient3025"
       gradientUnits="userSpaceOnUse"
       gradientTransform="matrix(0,0.2338549,0.1785258,0,-59.063968,-21.855554)"
       x1="135.5601"
       y1="417.66461"
       x2="161.87621"
       y2="417.66461" />
    <radialGradient
       inkscape:collect="always"
       xlink:href="#linearGradient10711"
       id="radialGradient3082"
       gradientUnits="userSpaceOnUse"
       gradientTransform="matrix(1.1297612,-0.3467295,0.6267361,2.042117,-9.0262396,-8.8441681)"
       spreadMethod="pad"
       cx="8.8133469"
       cy="14.235861"
       fx="8.8133469"
       fy="14.235861"
       r="5.3238101" />
    <linearGradient
       inkscape:collect="always"
       xlink:href="#linearGradient10711"
       id="linearGradient3084"
       gradientUnits="userSpaceOnUse"
       gradientTransform="translate(-5,0)"
       x1="9.4485903"
       y1="2.761672"
       x2="7.6776314"
       y2="19.013866" />
    <linearGradient
       inkscape:collect="always"
       xlink:href="#linearGradient3170"
       id="linearGradient5"
       gradientUnits="userSpaceOnUse"
       x1="27.6"
       y1="69.6"
       x2="111.6"
       y2="69.6" />
    <linearGradient
       inkscape:collect="always"
       xlink:href="#linearGradient10711"
       id="linearGradient11"
       x1="15.799551"
       y1="5.1643262"
       x2="15.799551"
       y2="12.267204"
       gradientUnits="userSpaceOnUse"
       gradientTransform="matrix(1.2422647,0,0,1.1088532,-3.756049,-1.3353243)" />
    <linearGradient
       inkscape:collect="always"
       xlink:href="#linearGradient10711"
       id="linearGradient12"
       gradientUnits="userSpaceOnUse"
       gradientTransform="matrix(0.98049663,0,0,-0.87519739,0.30237845,26.247058)"
       x1="15.799551"
       y1="5.1643262"
       x2="15.799551"
       y2="12.267204" />
    <filter
       inkscape:collect="always"
       style="color-interpolation-filters:sRGB"
       id="filter12"
       x="-0.074175788"
       y="-0.14866168"
       width="1.1483516"
       height="1.2973234">
      <feGaussianBlur
         inkscape:collect="always"
         stdDeviation="0.30640338"
         id="feGaussianBlur12" />
    </filter>
  </defs>
  <sodipodi:namedview
     id="base"
     pagecolor="#ffffff"
     bordercolor="#666666"
     borderopacity="1.0"
     inkscape:pageopacity="0.0"
     inkscape:pageshadow="2"
     inkscape:zoom="35.5155"
     inkscape:cx="13.881263"
     inkscape:cy="14.542946"
     inkscape:current-layer="layer1"
     showgrid="true"
     inkscape:grid-bbox="true"
     inkscape:document-units="px"
     inkscape:window-width="794"
     inkscape:window-height="734"
     inkscape:window-x="2398"
     inkscape:window-y="0"
     showguides="false"
     inkscape:guide-bbox="true"
     width="24px"
     height="24px"
     showborder="true"
     gridtolerance="10000"
     inkscape:grid-points="true"
     borderlayer="false"
     inkscape:showpageshadow="false"
     inkscape:pagecheckerboard="0"
     inkscape:deskcolor="#505050">
    <inkscape:grid
       id="grid6"
       units="px"
       originx="0"
       originy="0"
       spacingx="1"
       spacingy="1"
       empcolor="#0099e5"
       empopacity="0.30196078"
       color="#0099e5"
       opacity="0.14901961"
       empspacing="2"
       enabled="true"
       visible="true" />
  </sodipodi:namedview>
  <metadata
     id="metadata10648">
    <rdf:RDF>
      <cc:Work
         rdf:about="">
        <dc:format>image/svg+xml</dc:format>
        <dc:type
           rdf:resource="http://purl.org/dc/dcmitype/StillImage" />
      </cc:Work>
    </rdf:RDF>
  </metadata>
  <g
     id="layer1"
     inkscape:label="Layer 1"
     inkscape:groupmode="layer">
    <g
       transform="matrix(0.9883158,0,0,0.9883158,-4.9760801,1.16842e-2)"
       id="g2790"
       inkscape:label="Layer 1">
      <path
         clip-path="url(#clipPath3496)"
         transform="matrix(1.0551164,0.00539891,-0.00539891,1.0551164,-0.4968868,-2.0741232)"
         sodipodi:nodetypes="ccccccccc"
         id="path2792"
         d="M 10.3366,13.200539 6,18.477013 l 3.9136329,0.405834 2.7173901,2.647347 1.463903,-0.164957 0.402337,-2.838454 c 1.354667,3.58051 4.611834,3.697502 5.622173,3.692332 3.990683,-0.116547 6.778445,-2.226999 6.984574,-7.086552 z"
         style="opacity:0.725979;fill:#000000;fill-opacity:1;fill-rule:evenodd;stroke:#000000;stroke-width:1;stroke-linecap:butt;stroke-linejoin:miter;stroke-miterlimit:4;stroke-dasharray:none;stroke-opacity:1;filter:url(#filter3484)" />
      <path
         id="path2794"
         style="fill:#e3ad00;fill-rule:evenodd;stroke:#e3ad00;stroke-width:2;stroke-linecap:butt;stroke-linejoin:round;stroke-miterlimit:4;stroke-dasharray:none;stroke-opacity:1"
         d="M 6.0230167 1 L 6.0309216 17.153585 L 9.9635904 17.606139 L 12.87258 19.718713 L 13.821163 19.362994 L 14.226287 17.201015 A 7.3486061 7.3486061 0 0 0 20.74187 21.151469 A 7.3486061 7.3486061 0 0 0 28.089439 13.801924 A 7.3486061 7.3486061 0 0 0 20.74187 6.4543548 A 7.3486061 7.3486061 0 0 0 14.54841 9.8475168 L 6.0230167 1 z " />
      <path
         id="path2796"
         style="fill:#f3c300;fill-rule:evenodd;stroke:none;stroke-width:1;stroke-linecap:butt;stroke-linejoin:round;stroke-miterlimit:4;stroke-dasharray:none;stroke-opacity:1"
         d="M 5.9993021 1.0790486 L 5.9044438 17.005369 L 9.9477807 17.363064 L 12.807365 19.847167 L 13.896259 19.362994 L 14.238145 17.025131 A 7.2046019 7.2046019 0 0 0 20.722108 21.092183 A 7.2046019 7.2046019 0 0 0 27.927389 13.886901 A 7.2046019 7.2046019 0 0 0 20.722108 6.6816196 A 7.2046019 7.2046019 0 0 0 14.617578 10.058972 L 5.9993021 1.0790486 z " />
      <path
         id="path2798"
         style="fill:url(#radialGradient3082);fill-opacity:1.0;fill-rule:evenodd;stroke:none;stroke-width:1;stroke-linecap:butt;stroke-linejoin:round;stroke-miterlimit:4;stroke-dasharray:none;stroke-opacity:1"
         d="M 5.9993021 1.1719307 L 5.9044438 17.005369 L 9.9794002 17.349231 L 12.823174 19.805667 L 13.904164 19.283946 L 14.23024 17.009322 A 7.2046019 7.2046019 0 0 0 20.722108 21.092183 A 7.2046019 7.2046019 0 0 0 27.927389 13.886901 A 7.2046019 7.2046019 0 0 0 20.722108 6.6816196 A 7.2046019 7.2046019 0 0 0 14.591887 10.100472 L 5.9993021 1.1719307 z " />
      <path
         id="path2800"
         style="opacity:1;fill:none;fill-rule:evenodd;stroke:url(#linearGradient3084);stroke-width:0.9866485px;stroke-linecap:butt;stroke-linejoin:miter;stroke-opacity:1"
         d="M 6.5052133 2.3043022 L 6.4953322 16.444124 L 10.275832 16.837391 L 13.453587 19.204897 L 13.910093 16.230693 A 7.2046019 7.2046019 0 0 0 20.722108 21.092183 A 7.2046019 7.2046019 0 0 0 27.927389 13.886901 A 7.2046019 7.2046019 0 0 0 20.722108 6.6816196 A 7.2046019 7.2046019 0 0 0 14.362646 10.499668 L 6.5052133 2.3043022 z " />
    </g>
    <path
       id="path8"
       style="opacity:1;fill:url(#linearGradient11);fill-rule:evenodd;stroke-linecap:round;stroke-linejoin:round;paint-order:fill markers stroke"
       d="m 21.78421,10.133602 c 0,1.730641 -3.143159,2.133602 -6.280304,2.133602 -3.137145,0 -6.2803033,-0.402961 -6.2803033,-2.133602 0,-1.7306404 3.1431583,-4.1336017 6.2803033,-4.1336018 3.137145,-10e-8 6.280304,2.4029613 6.280304,4.1336018 z"
       sodipodi:nodetypes="sssss" />
    <path
       id="path11"
       style="opacity:0.637835;fill:url(#linearGradient12);fill-rule:evenodd;stroke-width:0.999996;stroke-linecap:round;stroke-linejoin:round;paint-order:fill markers stroke;filter:url(#filter12)"
       d="m 20.460834,17.194846 c 0,-1.365963 -2.480837,-1.684012 -4.956928,-1.684012 -2.476091,0 -4.956928,0.318049 -4.956928,1.684012 0,1.365963 2.480837,3.262576 4.956928,3.262576 2.476091,0 4.956928,-1.896613 4.956928,-3.262576 z"
       sodipodi:nodetypes="sssss" />
    <path
       style="opacity:1;fill:none;fill-opacity:0;fill-rule:evenodd;stroke:#e3ad00;stroke-width:1;stroke-linecap:round;stroke-linejoin:round;stroke-dasharray:none;stroke-opacity:1;paint-order:fill markers stroke"
       d="M 13.473114,11.473114 A 2.0110926,2.0110926 135.69095 0 1 15.4944,9.5 h 0.0112 A 1.9943999,1.9943999 45 0 1 17.5,11.4944 2.5251279,2.5251279 117.71077 0 1 16.415479,13.559165 2.3467279,2.3467279 114.98424 0 0 15.5,15.523827 V 16.2"
       id="path6"
       sodipodi:nodetypes="cccccc"
       inkscape:path-effect="#path-effect6"
       inkscape:original-d="M 13.473114,11.473114 13.5,9.5 h 4 v 3.3 l -2,1.4 v 2" />
    <circle
       style="opacity:1;fill:#e3ad00;fill-opacity:1;fill-rule:evenodd;stroke:#e3ad00;stroke-width:1;stroke-linecap:round;stroke-linejoin:round;stroke-dasharray:none;stroke-opacity:1;paint-order:fill markers stroke"
       id="path7"
       cx="15.539956"
       cy="18.260044"
       r="0.36004362" />
  </g>
</svg>
