<?xml version="1.0" encoding="UTF-8" standalone="no"?>
<!-- Created with Inkscape (http://www.inkscape.org/) -->

<svg
   width="128"
   height="128"
   id="svg2"
   sodipodi:version="0.32"
   inkscape:version="1.4.3 (0d15f75042, 2025-12-25)"
   version="1.0"
   sodipodi:docname="actionbutton.svg"
   inkscape:output_extension="org.inkscape.output.svgz.inkscape"
   inkscape:export-filename="arrow-up.png"
   inkscape:export-xdpi="11.25"
   inkscape:export-ydpi="11.25"
   xmlns:inkscape="http://www.inkscape.org/namespaces/inkscape"
   xmlns:sodipodi="http://sodipodi.sourceforge.net/DTD/sodipodi-0.dtd"
   xmlns:xlink="http://www.w3.org/1999/xlink"
   xmlns="http://www.w3.org/2000/svg"
   xmlns:svg="http://www.w3.org/2000/svg"
   xmlns:rdf="http://www.w3.org/1999/02/22-rdf-syntax-ns#"
   xmlns:cc="http://creativecommons.org/ns#"
   xmlns:dc="http://purl.org/dc/elements/1.1/">
  <sodipodi:namedview
     id="base"
     pagecolor="#9a9a9a"
     bordercolor="#666666"
     borderopacity="1.0"
     gridtolerance="10000"
     guidetolerance="10"
     objecttolerance="10"
     inkscape:pageopacity="1"
     inkscape:pageshadow="2"
     inkscape:zoom="1"
     inkscape:cx="113"
     inkscape:cy="194.5"
     inkscape:document-units="px"
     inkscape:current-layer="layer1"
     width="128px"
     height="128px"
     showgrid="true"
     inkscape:window-width="1110"
     inkscape:window-height="711"
     inkscape:window-x="0"
     inkscape:window-y="0"
     inkscape:snap-nodes="true"
     inkscape:snap-global="true"
     inkscape:window-maximized="0"
     inkscape:showpageshadow="2"
     inkscape:pagecheckerboard="0"
     inkscape:deskcolor="#d1d1d1">
    <inkscape:grid
       enabled="true"
       visible="true"
       empspacing="2"
       empopacity="0.4"
       opacity="0.2"
       empcolor="#0000ff"
       color="#0000ff"
       spacingy="1px"
       spacingx="1px"
       originy="0px"
       originx="0px"
       type="xygrid"
       id="GridFromPre046Settings"
       units="px" />
  </sodipodi:namedview>
  <defs
     id="defs4">
    <linearGradient
       id="linearGradient3647">
      <stop
         id="stop3649"
         offset="0"
         style="stop-color:#000000;stop-opacity:0.04316547;" />
      <stop
         style="stop-color:#000000;stop-opacity:0.07194245;"
         offset="0.61702126"
         id="stop3653" />
      <stop
         id="stop3655"
         offset="0.82073337"
         style="stop-color:#000000;stop-opacity:0.37410071;" />
      <stop
         id="stop3651"
         offset="1"
         style="stop-color:#000000;stop-opacity:1;" />
    </linearGradient>
    <inkscape:perspective
       sodipodi:type="inkscape:persp3d"
       inkscape:vp_x="0 : 64 : 1"
       inkscape:vp_y="0 : 1000 : 0"
       inkscape:vp_z="128 : 64 : 1"
       inkscape:persp3d-origin="64 : 42.666667 : 1"
       id="perspective65" />
    <linearGradient
       id="linearGradient4254">
      <stop
         style="stop-color:#29d7f5;stop-opacity:1;"
         offset="0"
         id="stop4256" />
      <stop
         id="stop4272"
         offset="0.6937564"
         style="stop-color:#29d7f5;stop-opacity:1;" />
      <stop
         id="stop4270"
         offset="0.77537483"
         style="stop-color:#38c2e9;stop-opacity:0.45614034;" />
      <stop
         style="stop-color:#31a7f2;stop-opacity:0.13157895;"
         offset="0.88768744"
         id="stop3222" />
      <stop
         style="stop-color:#2a8dfc;stop-opacity:0;"
         offset="1"
         id="stop4258" />
    </linearGradient>
    <linearGradient
       id="linearGradient3610">
      <stop
         style="stop-color:#000000;stop-opacity:1;"
         offset="0"
         id="stop3612" />
      <stop
         id="stop3618"
         offset="0.78947371"
         style="stop-color:#000000;stop-opacity:0.49803922;" />
      <stop
         style="stop-color:#000000;stop-opacity:0.33333334;"
         offset="0.84500837"
         id="stop3620" />
      <stop
         id="stop3622"
         offset="0.90754884"
         style="stop-color:#000000;stop-opacity:0.0877193;" />
      <stop
         style="stop-color:#000000;stop-opacity:0;"
         offset="1"
         id="stop3614" />
    </linearGradient>
    <linearGradient
       id="linearGradient4213">
      <stop
         id="stop4215"
         offset="0"
         style="stop-color:#000000;stop-opacity:1;" />
      <stop
         id="stop4217"
         offset="1"
         style="stop-color:#000000;stop-opacity:0;" />
    </linearGradient>
    <linearGradient
       id="linearGradient3272">
      <stop
         style="stop-color:white;stop-opacity:1;"
         offset="0"
         id="stop3274" />
      <stop
         style="stop-color:white;stop-opacity:0;"
         offset="1"
         id="stop3276" />
    </linearGradient>
    <linearGradient
       id="linearGradient4157">
      <stop
         style="stop-color:#828282;stop-opacity:1;"
         offset="0"
         id="stop4159" />
      <stop
         style="stop-color:#000000;stop-opacity:1;"
         offset="1"
         id="stop4161" />
    </linearGradient>
    <radialGradient
       inkscape:collect="always"
       xlink:href="#linearGradient3272"
       id="radialGradient2701"
       gradientUnits="userSpaceOnUse"
       gradientTransform="matrix(2.6250001,0,0,2.2075201,-199.00001,-172.90313)"
       cx="88"
       cy="93.5"
       fx="88"
       fy="93.5"
       r="8" />
    <radialGradient
       inkscape:collect="always"
       xlink:href="#linearGradient4213"
       id="radialGradient2704"
       gradientUnits="userSpaceOnUse"
       gradientTransform="matrix(2.6250001,0,0,2.2075201,-199.00001,-173.90313)"
       cx="88"
       cy="93.5"
       fx="88"
       fy="93.5"
       r="8" />
    <radialGradient
       inkscape:collect="always"
       xlink:href="#linearGradient3272"
       id="radialGradient2708"
       gradientUnits="userSpaceOnUse"
       gradientTransform="matrix(2.6250001,0,0,2.2075201,-199.00001,-174.90313)"
       cx="88"
       cy="93.5"
       fx="88"
       fy="93.5"
       r="8" />
    <radialGradient
       inkscape:collect="always"
       xlink:href="#linearGradient3272"
       id="radialGradient2716"
       gradientUnits="userSpaceOnUse"
       gradientTransform="matrix(2.6250001,0,0,2.2075201,-241,-196.90313)"
       cx="88"
       cy="93.5"
       fx="88"
       fy="93.5"
       r="8" />
    <radialGradient
       inkscape:collect="always"
       xlink:href="#linearGradient4213"
       id="radialGradient2719"
       gradientUnits="userSpaceOnUse"
       gradientTransform="matrix(2.6250001,0,0,2.2075201,-241,-197.90313)"
       cx="88"
       cy="93.5"
       fx="88"
       fy="93.5"
       r="8" />
    <radialGradient
       inkscape:collect="always"
       xlink:href="#linearGradient3272"
       id="radialGradient2723"
       gradientUnits="userSpaceOnUse"
       gradientTransform="matrix(2.6250001,0,0,2.2075201,-241,-198.90313)"
       cx="88"
       cy="93.5"
       fx="88"
       fy="93.5"
       r="8" />
    <linearGradient
       inkscape:collect="always"
       xlink:href="#linearGradient4157"
       id="linearGradient3636"
       gradientUnits="userSpaceOnUse"
       x1="60.148952"
       y1="121"
       x2="29.863916"
       y2="121" />
    <linearGradient
       inkscape:collect="always"
       xlink:href="#linearGradient4157"
       id="linearGradient3640"
       gradientUnits="userSpaceOnUse"
       x1="47.999996"
       y1="93.5"
       x2="47.999996"
       y2="121" />
    <linearGradient
       inkscape:collect="always"
       xlink:href="#linearGradient3272"
       id="linearGradient3218"
       gradientUnits="userSpaceOnUse"
       gradientTransform="matrix(0,-0.6666667,0.8,0,-50.799999,88)"
       x1="59.999996"
       y1="121"
       x2="33"
       y2="121" />
    <linearGradient
       inkscape:collect="always"
       xlink:href="#linearGradient3272"
       id="linearGradient3229"
       gradientUnits="userSpaceOnUse"
       gradientTransform="matrix(0.6666667,0,0,0.8,23.999999,-6.8)"
       x1="48"
       y1="96"
       x2="48"
       y2="118.5" />
    <radialGradient
       inkscape:collect="always"
       xlink:href="#linearGradient4254"
       id="radialGradient4268"
       cx="74"
       cy="34"
       fx="74"
       fy="34"
       r="14"
       gradientUnits="userSpaceOnUse"
       gradientTransform="translate(2.1366663e-5,9.8666671e-6)" />
    <radialGradient
       inkscape:collect="always"
       xlink:href="#linearGradient4254"
       id="radialGradient4276"
       gradientUnits="userSpaceOnUse"
       gradientTransform="translate(2.1366663e-5,9.8666671e-6)"
       cx="74"
       cy="34"
       fx="74"
       fy="34"
       r="14" />
    <radialGradient
       inkscape:collect="always"
       xlink:href="#linearGradient4254"
       id="radialGradient2456"
       gradientUnits="userSpaceOnUse"
       gradientTransform="translate(2.1366663e-5,9.8666671e-6)"
       cx="74"
       cy="34"
       fx="74"
       fy="34"
       r="14" />
    <radialGradient
       inkscape:collect="always"
       xlink:href="#linearGradient4254"
       id="radialGradient2458"
       gradientUnits="userSpaceOnUse"
       gradientTransform="translate(2.1366663e-5,9.8666671e-6)"
       cx="74"
       cy="34"
       fx="74"
       fy="34"
       r="14" />
    <radialGradient
       inkscape:collect="always"
       xlink:href="#linearGradient3647"
       id="radialGradient3645"
       cx="48"
       cy="106"
       fx="48"
       fy="106"
       r="12"
       gradientTransform="matrix(1,0,0,0.83333333,0,17.666667)"
       gradientUnits="userSpaceOnUse" />
    <radialGradient
       inkscape:collect="always"
       xlink:href="#linearGradient3610"
       id="radialGradient3665"
       gradientUnits="userSpaceOnUse"
       gradientTransform="matrix(-1.7184412e-7,0.8020833,-1,-1.4878279e-7,154,67.621028)"
       cx="48.316662"
       cy="105.99999"
       fx="48.316662"
       fy="105.99999"
       r="12" />
    <linearGradient
       inkscape:collect="always"
       xlink:href="#linearGradient4157"
       id="linearGradient3667"
       gradientUnits="userSpaceOnUse"
       x1="60.148952"
       y1="121"
       x2="29.863916"
       y2="121" />
    <linearGradient
       inkscape:collect="always"
       xlink:href="#linearGradient3272"
       id="linearGradient3669"
       gradientUnits="userSpaceOnUse"
       gradientTransform="matrix(0,-0.6666667,0.8,0,-50.799999,88)"
       x1="59.999996"
       y1="121"
       x2="33"
       y2="121" />
  </defs>
  <metadata
     id="metadata7">
    <rdf:RDF>
      <cc:Work
         rdf:about="">
        <dc:format>image/svg+xml</dc:format>
        <dc:type
           rdf:resource="http://purl.org/dc/dcmitype/StillImage" />
      </cc:Work>
    </rdf:RDF>
  </metadata>
  <g
     id="layer1"
     inkscape:groupmode="layer"
     inkscape:label="Layer 1">
    <path
       sodipodi:type="arc"
       style="opacity:0.8;fill:url(#radialGradient4268);fill-opacity:1;stroke:none"
       id="focus"
       sodipodi:cx="74"
       sodipodi:cy="34"
       sodipodi:rx="14"
       sodipodi:ry="14"
       d="m 88,34 a 14,14 0 1 1 -28,0 14,14 0 1 1 28,0 z"
       transform="matrix(1.0714286,0,0,1.0714286,-10.285715,-25.428571)" />
    <g
       id="pressed"
       transform="matrix(1.5000001,0,0,1.5,-51.000008,-74)">
      <path
         sodipodi:type="arc"
         style="fill:none;stroke:none"
         id="path3606"
         sodipodi:cx="48"
         sodipodi:cy="106"
         sodipodi:rx="12"
         sodipodi:ry="10"
         d="m 60,106 c 0,5.52285 -5.372583,10 -12,10 -6.627417,0 -12,-4.47715 -12,-10 0,-5.52285 5.372583,-10 12,-10 6.627417,0 12,4.47715 12,10 z"
         transform="matrix(0.8333333,0,0,1,32.000002,-4)" />
      <path
         transform="matrix(0.6666667,0,0,0.8,39.999999,17.2)"
         d="m 60,106 c 0,5.52285 -5.372583,10 -12,10 -6.627417,0 -12,-4.47715 -12,-10 0,-5.52285 5.372583,-10 12,-10 6.627417,0 12,4.47715 12,10 z"
         sodipodi:ry="10"
         sodipodi:rx="12"
         sodipodi:cy="106"
         sodipodi:cx="48"
         id="path2826"
         style="fill:url(#linearGradient3640);fill-opacity:1;stroke:none"
         sodipodi:type="arc" />
      <path
         style="fill:url(#linearGradient3229);fill-opacity:1;stroke:none"
         d="m 56,70 c -4.416,0 -8,3.584 -8,8 0,4.416 3.584,8 8,8 4.416,0 8.000001,-3.584 8,-8 0,-4.416 -3.583999,-8 -8,-8 z m 0,1 c 3.864,0 7,3.136 7,7 0,3.864 -3.136,7 -7,7 -3.864001,0 -7,-3.136 -7,-7 -2e-6,-3.864 3.136,-7 7,-7 z"
         transform="translate(16,24)"
         id="path3220" />
      <path
         sodipodi:type="arc"
         style="opacity:0.71627909;fill:url(#radialGradient3645);fill-opacity:1;stroke:none"
         id="path3643"
         sodipodi:cx="48"
         sodipodi:cy="106"
         sodipodi:rx="12"
         sodipodi:ry="10"
         d="m 60,106 c 0,5.52285 -5.372583,10 -12,10 -6.627417,0 -12,-4.47715 -12,-10 0,-5.52285 5.372583,-10 12,-10 6.627417,0 12,4.47715 12,10 z"
         transform="matrix(0.6666667,0,0,0.8,39.999999,17.2)" />
    </g>
    <g
       id="normal"
       transform="matrix(1.5000001,0,0,1.5,-84.000009,-102)">
      <path
         transform="matrix(0.8333333,0,0,1,32.000002,-4)"
         d="m 60,106 c 0,5.52285 -5.372583,10 -12,10 -6.627417,0 -12,-4.47715 -12,-10 0,-5.52285 5.372583,-10 12,-10 6.627417,0 12,4.47715 12,10 z"
         sodipodi:ry="10"
         sodipodi:rx="12"
         sodipodi:cy="106"
         sodipodi:cx="48"
         id="path3630"
         style="fill:none;fill-opacity:1;stroke:none"
         sodipodi:type="arc" />
      <path
         sodipodi:type="arc"
         style="fill:url(#linearGradient3636);fill-opacity:1;stroke:none"
         id="path3632"
         sodipodi:cx="48"
         sodipodi:cy="106"
         sodipodi:rx="12"
         sodipodi:ry="10"
         d="m 60,106 c 0,5.52285 -5.372583,10 -12,10 -6.627417,0 -12,-4.47715 -12,-10 0,-5.52285 5.372583,-10 12,-10 6.627417,0 12,4.47715 12,10 z"
         transform="matrix(0,-0.6666667,0.8,0,-12.799999,134)" />
      <path
         style="fill:url(#linearGradient3218);fill-opacity:1;stroke:none"
         d="m 34,48 c -4.416,0 -8.000001,3.583998 -8,8 0,4.416 3.584001,7.999999 8,8 4.416,0 8.000001,-3.584001 8,-8 0,-4.416 -3.583999,-7.999998 -8,-8 z m 0,0.666667 c 3.863998,2e-6 7.333334,3.469334 7.333334,7.333333 C 41.333335,59.863999 37.863999,63.333333 34,63.333333 30.136,63.333332 26.666668,59.863999 26.666668,56 26.666667,52.136001 30.136001,48.666667 34,48.666667 z"
         transform="translate(38,46)"
         id="path3209"
         sodipodi:nodetypes="csssccsssc" />
    </g>
    <path
       transform="matrix(1.0714286,0,0,1.0714286,-12.285715,6.5714276)"
       d="m 88,34 a 14,14 0 1 1 -28,0 14,14 0 1 1 28,0 z"
       sodipodi:ry="14"
       sodipodi:rx="14"
       sodipodi:cy="34"
       sodipodi:cx="74"
       id="hover"
       style="fill:url(#radialGradient4276);fill-opacity:1;stroke:none"
       sodipodi:type="arc" />
    <g
       transform="matrix(1.5000001,0,0,1.5,-84.000009,-133)"
       id="shadow">
      <path
         sodipodi:type="arc"
         style="fill:url(#radialGradient3665);fill-opacity:1;stroke:none"
         id="path3659"
         sodipodi:cx="48"
         sodipodi:cy="106"
         sodipodi:rx="12"
         sodipodi:ry="10"
         d="m 60,106 c 0,5.52285 -5.372583,10 -12,10 -6.627417,0 -12,-4.47715 -12,-10 0,-5.52285 5.372583,-10 12,-10 6.627417,0 12,4.47715 12,10 z"
         transform="matrix(0.8333333,0,0,1,32.000002,-4)" />
    </g>
  </g>
</svg>
